<?xml version="1.0" encoding="UTF-8"?>
<!-- Created with Inkscape (http://www.inkscape.org/) -->
<svg version="1.1" viewBox="0 0 98.301 97.845" xmlns="http://www.w3.org/2000/svg" xmlns:cc="http://creativecommons.org/ns#" xmlns:dc="http://purl.org/dc/elements/1.1/" xmlns:rdf="http://www.w3.org/1999/02/22-rdf-syntax-ns#" xmlns:xlink="http://www.w3.org/1999/xlink">
 <title>aegix-icon-1-optimized-svg</title>
 <g transform="translate(-4.2486 -5.9582)">
  <g transform="translate(0 1.7096)">
   <path d="m6.4109 6.4109h94.027"/>
   <g transform="translate(-.025282 -.025282)">
    <path d="m53.424 4.2739c16.793 2.5646 36.328 8.5479 49.15 0-1.8913 24.484-3.6806 48.955 0 72.657-21.006 4.4191-34.694 15.134-49.15 25.188z" fill="#000000"/>
    <path d="m94.027 17.096c-25.644 14.959-4.2739 21.37-4.2739 21.37l-21.37-6.4109z" fill="#ffffff"/>
   </g>
   <g transform="matrix(-1 0 0 1 106.82 -.025282)">
    <path d="m53.424 4.2739c16.793 2.5646 36.328 8.5479 49.15 0-1.8913 24.484-3.6806 48.955 0 72.657-21.006 4.4191-34.694 15.134-49.15 25.188z" fill="#000000"/>
    <path d="m94.027 17.096c-25.644 14.959-4.2739 21.37-4.2739 21.37l-21.37-6.4109z" fill="#ffffff"/>
   </g>
   <path d="m4.2486 76.906 49.176-49.069 49.124 49.069-7.4794 1.9233-41.671-19.874-41.218 20.007z" fill="#ffffff"/>
   <path d="m52.964 4.3158 6e-3 97.479 0.42909 0.29875 0.42739-0.2968 0.0069-97.481-0.43434-0.066986z" fill="#ffffff" stroke-width=".2137"/>
  </g>
 </g>
 <metadata>
  <rdf:RDF>
   <cc:Work rdf:about="">
    <dc:title>aegix-icon-1-optimized-svg</dc:title>
   </cc:Work>
  </rdf:RDF>
 </metadata>
</svg>
